<?xml version="1.0" standalone="no"?>
<!DOCTYPE svg PUBLIC "-//W3C//DTD SVG 20010904//EN"
 "http://www.w3.org/TR/2001/REC-SVG-20010904/DTD/svg10.dtd">
<svg version="1.0" xmlns="http://www.w3.org/2000/svg"
 width="132.000000pt" height="58.000000pt" viewBox="0 0 132.000000 58.000000"
 preserveAspectRatio="xMidYMid meet">

<g transform="translate(0.000000,58.000000) scale(0.100000,-0.100000)"
fill="#000000" stroke="none">
<path d="M104 542 c-25 -16 -34 -50 -22 -77 13 -28 39 -38 89 -33 34 3 34 3
37 61 l3 57 -48 0 c-26 0 -53 -4 -59 -8z m56 -37 c10 -12 10 -18 0 -30 -25
-30 -61 -7 -46 30 3 8 12 15 19 15 8 0 20 -7 27 -15z"/>
<path d="M85 358 c-10 -21 -12 -34 -5 -36 5 -2 10 -24 10 -48 0 -32 4 -44 15
-44 11 0 15 11 15 40 0 26 5 42 17 49 14 8 15 12 4 25 -9 11 -10 16 -2 16 6 0
11 7 11 15 0 9 -9 15 -24 15 -18 0 -29 -9 -41 -32z"/>
<path d="M231 358 c-12 -32 1 -109 20 -121 18 -11 49 -3 49 13 0 5 -7 10 -15
10 -10 0 -15 10 -15 30 0 20 5 30 15 30 8 0 15 5 15 10 0 6 -7 13 -15 16 -8 4
-15 12 -15 20 0 23 -30 16 -39 -8z"/>
<path d="M317 358 c-8 -37 7 -110 24 -121 18 -11 49 -3 49 13 0 5 -7 10 -15
10 -10 0 -15 10 -15 30 0 20 5 30 15 30 8 0 15 7 15 15 0 8 -7 15 -15 15 -8 0
-15 7 -15 15 0 24 -37 18 -43 -7z"/>
<path d="M170 290 c0 -47 3 -60 15 -60 12 0 15 13 15 60 0 47 -3 60 -15 60
-12 0 -15 -13 -15 -60z"/>
<path d="M410 290 c0 -47 3 -60 15 -60 12 0 15 13 15 60 0 47 -3 60 -15 60
-12 0 -15 -13 -15 -60z"/>
<path d="M474 335 c-3 -7 -4 -32 -2 -56 2 -32 8 -45 21 -47 14 -3 17 4 17 37
0 42 16 63 31 40 5 -8 9 -29 9 -46 0 -23 5 -33 15 -33 13 0 15 11 13 58 l-3
57 -48 2 c-32 1 -50 -3 -53 -12z"/>
<path d="M618 339 c-23 -13 -23 -62 -1 -84 11 -12 25 -15 47 -11 19 4 27 3 21
-3 -6 -5 -26 -11 -45 -13 -47 -4 -40 -22 11 -26 58 -5 69 9 69 83 l0 62 -42 1
c-24 1 -51 -4 -60 -9z m67 -44 c0 -25 -40 -33 -49 -10 -9 24 2 37 27 33 14 -2
22 -10 22 -23z"/>
<path d="M818 173 c-2 -26 2 -74 7 -100 4 -18 12 -23 35 -23 20 0 30 5 30 15
0 8 -7 15 -15 15 -10 0 -15 10 -15 30 0 20 5 30 15 30 21 0 19 12 -5 33 -26
22 -50 22 -52 0z"/>
<path d="M315 161 c-3 -2 -5 -28 -5 -58 0 -46 3 -53 19 -53 16 0 20 8 23 43 2
23 8 42 13 42 6 0 11 -19 13 -42 3 -35 7 -43 23 -43 16 0 19 7 19 49 0 27 -6
53 -12 59 -13 10 -84 13 -93 3z"/>
<path d="M440 108 c0 -51 2 -58 19 -58 16 0 20 8 23 43 2 23 8 42 13 42 6 0
11 -19 13 -42 3 -35 7 -43 23 -43 16 0 19 7 19 41 0 63 -12 77 -65 77 l-45 -1
0 -59z"/>
<path d="M581 144 c-25 -32 -26 -43 -5 -72 12 -18 24 -22 52 -20 49 4 53 26 5
31 l-38 4 43 1 c35 2 42 5 42 22 0 25 -34 60 -59 60 -11 0 -29 -12 -40 -26z
m54 -14 c3 -5 -3 -10 -15 -10 -12 0 -18 5 -15 10 3 6 10 10 15 10 5 0 12 -4
15 -10z"/>
<path d="M710 150 c-43 -43 -11 -104 51 -98 47 4 50 28 4 28 -34 0 -36 2 -33
28 2 20 8 26 23 25 35 -4 49 5 35 22 -18 21 -56 19 -80 -5z"/>
<path d="M917 163 c-4 -3 -7 -30 -7 -60 0 -40 4 -53 15 -53 12 0 15 13 15 60
0 55 -6 70 -23 53z"/>
<path d="M981 144 c-25 -32 -26 -43 -5 -72 10 -15 25 -22 48 -22 59 0 87 59
46 100 -28 28 -64 25 -89 -6z m67 -38 c3 -24 0 -27 -20 -24 -26 3 -37 36 -16
49 20 13 33 5 36 -25z"/>
<path d="M1110 109 c0 -46 3 -59 15 -59 11 0 15 11 15 40 0 33 3 40 20 40 17
0 20 -7 20 -40 0 -34 3 -40 21 -40 20 0 21 4 17 50 -3 28 -8 53 -12 57 -3 4
-26 8 -51 9 l-45 3 0 -60z"/>
</g>
</svg>
