<?xml version="1.0" encoding="UTF-8"?>
<svg version="1.1" xmlns="http://www.w3.org/2000/svg" width="559" height="265">
<path d="M0 0 C184.47 0 368.94 0 559 0 C559 87.45 559 174.9 559 265 C374.53 265 190.06 265 0 265 C0 177.55 0 90.1 0 0 Z " fill="#FDFDFD" transform="translate(0,0)"/>
<path d="M0 0 C1.97712771 1.14234045 3.9125854 2.35839027 5.8125 3.625 C4.22287341 7.66020597 2.53017682 11.64311282 0.8125 15.625 C-2.14925123 15.01222388 -3.56808783 14.37127478 -6.1875 12.625 C-10.17348983 11.82162221 -13.75896289 11.76258685 -17.296875 13.8984375 C-19.7362885 15.96488282 -21.7490922 17.74818439 -23.1875 20.625 C-23.5376723 25.96512755 -23.66819602 29.30413597 -20.1875 33.625 C-17.16717037 36.81791989 -15.66212133 37.56473063 -11.25 38.125 C-6.99491849 37.89217479 -4.43618406 36.42037931 -1.1875 33.625 C1.51451261 29.8591515 2.21020481 26.95433893 2.625 22.375 C3.87778515 13.28717329 8.09730546 7.62987598 15.00390625 1.81640625 C21.65312873 -2.56375111 29.17454504 -2.01759685 36.8125 -1.375 C44.32389808 0.57586078 50.24689427 6.6638469 54.25 13.125 C57.25776866 19.83363185 57.12319472 28.41507271 54.96484375 35.34765625 C51.56104285 42.0744899 45.86689421 47.55276312 38.9375 50.5625 C31.02266249 53.05621593 23.29415861 51.96038155 15.8125 48.625 C14.8225 47.965 13.8325 47.305 12.8125 46.625 C13.31853992 44.45625748 13.81233813 42.62532373 14.8125 40.625 C15.4725 40.625 16.1325 40.625 16.8125 40.625 C17.1425 38.975 17.4725 37.325 17.8125 35.625 C21.8125 35.625 21.8125 35.625 24.8125 37.625 C28.24880029 38.29333379 31.38255818 38.34400954 34.8125 37.625 C38.31052546 34.9455125 41.47179331 31.10242439 42.0859375 26.63671875 C42.27765786 22.24927209 42.31759586 20.2844307 39.5625 16.6875 C35.15928981 13.38509235 32.55223665 12.16892179 26.84765625 12.296875 C23.52073925 12.83326853 21.35874401 14.51348058 18.8125 16.625 C17.4910007 19.2679986 17.40879481 21.68842004 17.0625 24.625 C15.73518948 33.39300018 12.99508665 40.87872737 5.75 46.375 C-1.34098022 50.94982595 -7.70549442 52.84719101 -16.1875 51.625 C-24.33125835 49.15413833 -29.67072781 44.93749646 -34.07421875 37.72265625 C-37.80291269 30.69701187 -38.66535869 23.62532771 -36.3828125 15.90234375 C-33.17838947 8.75316547 -27.84761878 3.00150576 -20.8359375 -0.57421875 C-14.49667466 -2.49095751 -6.16707165 -2.60152701 0 0 Z " fill="#F2BDB3" transform="translate(73.1875,189.375)"/>
<path d="M0 0 C2.98927733 1.44572322 5.22952307 2.80764807 7.5859375 5.1640625 C7.9159375 3.5140625 8.2459375 1.8640625 8.5859375 0.1640625 C13.2059375 0.1640625 17.8259375 0.1640625 22.5859375 0.1640625 C22.66031927 6.44455398 22.71464953 12.72478671 22.75073242 19.00561523 C22.76578112 21.14042632 22.78622486 23.27520669 22.81225586 25.40991211 C22.84881136 28.48559164 22.8657034 31.56086094 22.87890625 34.63671875 C22.89439011 35.58490982 22.90987396 36.53310089 22.92582703 37.51002502 C22.92791957 45.82509772 20.82684488 51.43926128 15.1953125 57.65625 C8.87085572 63.58159058 0.62221522 63.49076497 -7.54296875 63.46484375 C-13.80541451 62.97825614 -19.4805294 61.18398866 -25.4140625 59.1640625 C-24.94605539 55.10800085 -24.53453042 51.69817571 -22.4140625 48.1640625 C-21.2384375 48.6590625 -20.0628125 49.1540625 -18.8515625 49.6640625 C-12.31798691 51.82460896 -5.18840155 52.32888098 1.5859375 51.1640625 C4.4335733 48.94497619 6.19611364 47.39814575 7.29296875 43.92578125 C7.32777344 43.24128906 7.36257813 42.55679688 7.3984375 41.8515625 C7.4603125 40.6346875 7.5221875 39.4178125 7.5859375 38.1640625 C6.19375 39.370625 6.19375 39.370625 4.7734375 40.6015625 C-0.34951767 45.04145698 -5.93170921 44.62581917 -12.4140625 44.1640625 C-17.5561123 43.2865796 -20.54478625 41.44013232 -23.7890625 37.3515625 C-28.14945108 30.82282851 -29.16086144 24.91210148 -28.4140625 17.1640625 C-26.84288099 9.40635379 -23.64329616 5.55369541 -17.2890625 0.8515625 C-11.95073235 -1.99787298 -5.65086337 -1.95677146 0 0 Z " fill="#55585C" transform="translate(287.4140625,110.8359375)"/>
<path d="M0 0 C0 -0.66 0 -1.32 0 -2 C4.62 -2 9.24 -2 14 -2 C14 14.17 14 30.34 14 47 C9.38 47 4.76 47 0 47 C0 46.34 0 45.68 0 45 C-0.52207031 45.2165625 -1.04414062 45.433125 -1.58203125 45.65625 C-9.6454671 48.70651645 -17.21302442 49.60993137 -25.25 46 C-32.01371352 42.18264181 -37.21541371 36.62491307 -39.5625 29.12890625 C-41.16928634 21.31016913 -40.14304182 14.83262307 -36 8 C-26.69836214 -3.3686685 -13.20972468 -6.09679601 0 0 Z " fill="#55585D" transform="translate(79,28)"/>
<path d="M0 0 C9.02541796 -0.39704092 14.75374636 0.87314505 21.51171875 6.88671875 C26.68098507 12.29151519 27.71359953 17.87322574 28.078125 25.15234375 C27.86929625 32.70498344 25.53618693 38.96975896 20.015625 44.21484375 C13.06587905 49.66159474 5.41981793 51.31940397 -3.296875 50.27734375 C-10.85764412 48.4240824 -16.47822337 44.95980043 -20.609375 38.27734375 C-24.48037064 31.61232239 -25.44864212 25.31243378 -23.71875 17.75 C-21.36001797 10.79174051 -17.37987328 6.33944611 -11.296875 2.27734375 C-7.28303415 0.64459493 -4.279084 0.35997034 0 0 Z " fill="#54575C" transform="translate(436.296875,187.72265625)"/>
<path d="M0 0 C1.22498128 0.72248896 2.43545244 1.4705476 3.625 2.25 C4.98625 3.0853125 4.98625 3.0853125 6.375 3.9375 C13.19250848 10.94438372 13.625 19.89338116 13.625 29.25 C2.735 29.25 -8.155 29.25 -19.375 29.25 C-17.03651858 35.16731018 -17.03651858 35.16731018 -13.375 37.25 C-10.7692313 37.60505425 -10.7692313 37.60505425 -7.9375 37.5625 C-6.51630859 37.58763672 -6.51630859 37.58763672 -5.06640625 37.61328125 C-1.98242658 37.19701113 -0.72755324 36.20873376 1.625 34.25 C5.44626291 34.37326655 7.93259244 36.70717064 10.625 39.25 C10.625 40.24 10.625 41.23 10.625 42.25 C8.578125 43.8203125 8.578125 43.8203125 5.875 45.375 C4.99328125 45.89320313 4.1115625 46.41140625 3.203125 46.9453125 C-3.29891828 50.23574046 -11.23915182 50.53812031 -18.171875 48.37890625 C-25.23276521 45.11591911 -30.08184392 40.63930104 -33.25 33.5 C-35.52790335 26.39184377 -35.3789236 19.64041533 -32.1875 12.875 C-25.68903391 1.33839729 -12.92846141 -6.2795384 0 0 Z " fill="#585B5F" transform="translate(278.375,188.75)"/>
<path d="M0 0 C4.95 0 9.9 0 15 0 C15 1.65 15 3.3 15 5 C15.886875 4.175 16.77375 3.35 17.6875 2.5 C22.96698187 -1.26337812 28.79334596 -0.95366725 35 0 C38.66409943 1.36309501 41.07283123 3.26049564 42.92671204 6.73864746 C44.88897155 11.8344007 45.40572406 16.22258065 45.29296875 21.65625 C45.28872391 22.44398804 45.28447906 23.23172607 45.28010559 24.04333496 C45.26347617 26.5292559 45.22585614 29.01432919 45.1875 31.5 C45.17243271 33.19790486 45.15874791 34.89582258 45.14648438 36.59375 C45.11362466 40.72948719 45.06195474 44.8646005 45 49 C40.38 49 35.76 49 31 49 C30.67 37.78 30.34 26.56 30 15 C24.87861773 12.95144709 23.18132175 12.82687055 18 14 C15.16992998 16.83007002 15.64754074 19.61952852 15.5859375 23.4140625 C15.56657135 24.14370209 15.5472052 24.87334167 15.5272522 25.62509155 C15.46741578 27.95827502 15.42105577 30.29150773 15.375 32.625 C15.33682386 34.20575082 15.29777235 35.78648076 15.2578125 37.3671875 C15.16006049 41.24468372 15.08052772 45.12195439 15 49 C10.05 49 5.1 49 0 49 C0 32.83 0 16.66 0 0 Z " fill="#585B60" transform="translate(138,188)"/>
<path d="M0 0 C4.62 0 9.24 0 14 0 C14 1.98 14 3.96 14 6 C14.66 6 15.32 6 16 6 C16.33 5.01 16.66 4.02 17 3 C22.31791115 -1.02155202 27.59942114 -0.73852833 34 0 C37.53791998 1.00094177 40.01802418 2.56891473 42.15423584 5.68212891 C44.89133051 10.88971273 45.547488 15.03939051 45.390625 20.875 C45.38496521 21.68493408 45.37930542 22.49486816 45.37347412 23.3293457 C45.3512902 25.88686167 45.30113203 28.44291591 45.25 31 C45.22991157 32.74607335 45.21166493 34.49216892 45.1953125 36.23828125 C45.15148505 40.49274075 45.08258721 44.74612357 45 49 C40.38 49 35.76 49 31 49 C30.67 37.78 30.34 26.56 30 15 C24.56496809 12.81888535 24.56496809 12.81888535 19 13 C15.86053465 15.28493632 15.0778849 16.51611047 14.45410156 20.39160156 C14.4331543 21.7112793 14.41220703 23.03095703 14.390625 24.390625 C14.37408875 25.09523865 14.35755249 25.79985229 14.34051514 26.52581787 C14.29208861 28.76730102 14.27067813 31.00810613 14.25 33.25 C14.22183552 34.77347151 14.19190741 36.29691152 14.16015625 37.8203125 C14.08302054 41.54718508 14.04246097 45.2719271 14 49 C9.38 49 4.76 49 0 49 C0 32.83 0 16.66 0 0 Z " fill="#56595E" transform="translate(472,188)"/>
<path d="M0 0 C4.0562249 2.02811245 6.3971482 4.28164028 9 8 C10.29487016 11.88461047 10.1232604 15.55883956 10.09765625 19.60546875 C10.0962413 20.44467361 10.09482635 21.28387848 10.09336853 22.14851379 C10.08777215 24.82821216 10.07522035 27.5078269 10.0625 30.1875 C10.05748453 32.00455608 10.05292171 33.82161348 10.04882812 35.63867188 C10.03780391 40.09248013 10.02054178 44.54622589 10 49 C5.38 49 0.76 49 -4 49 C-4.06058594 46.96457031 -4.12117188 44.92914063 -4.18359375 42.83203125 C-4.24619942 40.84951846 -4.30883529 38.8670065 -4.37231445 36.88452148 C-4.4154884 35.51217224 -4.45717501 34.13977533 -4.49731445 32.76733398 C-4.55544392 30.78877932 -4.6194571 28.8104003 -4.68359375 26.83203125 C-4.72025146 25.64327393 -4.75690918 24.4545166 -4.79467773 23.22973633 C-4.9765391 20.36904195 -5.25473478 17.76558133 -6 15 C-8.58552718 12.81224624 -10.15101055 13.00529862 -13.5625 13.125 C-16.94814263 13.68744074 -16.94814263 13.68744074 -18.68286133 15.60644531 C-20.48017717 18.87259628 -20.43553179 21.45395144 -20.51171875 25.171875 C-20.52966995 25.8542926 -20.54762115 26.53671021 -20.56611633 27.23980713 C-20.62010383 29.4098094 -20.65407583 31.57959325 -20.6875 33.75 C-20.72068352 35.22529074 -20.75517415 36.70055269 -20.79101562 38.17578125 C-20.87582158 41.78364427 -20.94268837 45.39158362 -21 49 C-25.29 49 -29.58 49 -34 49 C-34 33.16 -34 17.32 -34 1 C-29.71 1 -25.42 1 -21 1 C-20.67 2.65 -20.34 4.3 -20 6 C-19.64550781 5.566875 -19.29101562 5.13375 -18.92578125 4.6875 C-13.48381011 -1.00482817 -7.56981044 -1.23608297 0 0 Z " fill="#54575C" transform="translate(227,188)"/>
<path d="M0 0 C5.04152907 2.16065532 6.88681379 5.01877421 9.17077637 9.75683594 C10.54263172 13.46789348 10.49587957 16.95932446 10.390625 20.875 C10.38496521 21.68493408 10.37930542 22.49486816 10.37347412 23.3293457 C10.3512902 25.88686167 10.30113203 28.44291591 10.25 31 C10.22991157 32.74607335 10.21166493 34.49216892 10.1953125 36.23828125 C10.15148505 40.49274075 10.08258721 44.74612357 10 49 C5.71 49 1.42 49 -3 49 C-3.03738281 46.89238281 -3.07476562 44.78476563 -3.11328125 42.61328125 C-3.15955705 40.56117665 -3.21076831 38.5092501 -3.26245117 36.45727539 C-3.29560557 35.03648798 -3.32366692 33.61557187 -3.34643555 32.19458008 C-3.38015847 30.1460918 -3.43247745 28.0987728 -3.48828125 26.05078125 C-3.51446533 24.82012939 -3.54064941 23.58947754 -3.56762695 22.3215332 C-4.02984181 18.7707522 -4.82110524 16.81908888 -7 14 C-9.42933613 13.32268779 -9.42933613 13.32268779 -12.0625 13.5625 C-12.94035156 13.58441406 -13.81820312 13.60632813 -14.72265625 13.62890625 C-17.1933405 13.80388812 -17.1933405 13.80388812 -19 16 C-19.24515697 18.50375468 -19.37333658 20.90549479 -19.4140625 23.4140625 C-19.43342865 24.14370209 -19.4527948 24.87334167 -19.4727478 25.62509155 C-19.53258422 27.95827502 -19.57894423 30.29150773 -19.625 32.625 C-19.66317614 34.20575082 -19.70222765 35.78648076 -19.7421875 37.3671875 C-19.83828878 41.2446223 -19.92230412 45.12215449 -20 49 C-24.62 49 -29.24 49 -34 49 C-34 33.16 -34 17.32 -34 1 C-29.38 1 -24.76 1 -20 1 C-19.67 2.32 -19.34 3.64 -19 5 C-17.63875 3.7625 -17.63875 3.7625 -16.25 2.5 C-11.216393 -1.09836264 -5.94595549 -0.86832452 0 0 Z " fill="#54575C" transform="translate(241,110)"/>
<path d="M0 0 C0.67611328 0.00515625 1.35222656 0.0103125 2.04882812 0.015625 C7.00144527 0.09447264 7.00144527 0.09447264 9.3125 1.25 C9.3125 4.88 9.3125 8.51 9.3125 12.25 C6.3425 12.25 3.3725 12.25 0.3125 12.25 C-0.3475 14.23 -1.0075 16.21 -1.6875 18.25 C1.9425 18.25 5.5725 18.25 9.3125 18.25 C9.3125 22.21 9.3125 26.17 9.3125 30.25 C5.3525 30.25 1.3925 30.25 -2.6875 30.25 C-2.6875 42.13 -2.6875 54.01 -2.6875 66.25 C-6.9775 66.25 -11.2675 66.25 -15.6875 66.25 C-15.6875 54.04 -15.6875 41.83 -15.6875 29.25 C-17.6675 29.25 -19.6475 29.25 -21.6875 29.25 C-21.6875 25.62 -21.6875 21.99 -21.6875 18.25 C-19.7075 18.25 -17.7275 18.25 -15.6875 18.25 C-15.749375 17.26 -15.81125 16.27 -15.875 15.25 C-15.85762109 10.97478828 -15.00267637 6.88474788 -12.6875 3.25 C-8.57787239 -0.06178782 -5.17035649 -0.10128024 0 0 Z " fill="#55585C" transform="translate(60.6875,92.75)"/>
<path d="M0 0 C4.62 0 9.24 0 14 0 C14 4.29 14 8.58 14 13 C17.63 13 21.26 13 25 13 C25 16.96 25 20.92 25 25 C21.37 25 17.74 25 14 25 C14.14011038 28.81279106 14.28680438 32.62512562 14.4375 36.4375 C14.47681641 37.52611328 14.51613281 38.61472656 14.55664062 39.73632812 C14.59853516 40.77080078 14.64042969 41.80527344 14.68359375 42.87109375 C14.72025146 43.82943115 14.75690918 44.78776855 14.79467773 45.77514648 C14.75834424 47.97138925 14.75834424 47.97138925 16 49 C20.65088715 49.30523962 20.65088715 49.30523962 25 48 C25 51.63 25 55.26 25 59 C19.72074079 62.33426897 15.06894524 62.74209883 9 62 C4.80572637 60.26758263 2.51507855 57.74113066 0 54 C-0.45410156 50.77026367 -0.45410156 50.77026367 -0.390625 47.16796875 C-0.37773437 45.87568359 -0.36484375 44.58339844 -0.3515625 43.25195312 C-0.31814634 41.89712454 -0.28428662 40.54230683 -0.25 39.1875 C-0.22992034 37.81317683 -0.21167213 36.43882561 -0.1953125 35.06445312 C-0.14821732 31.70892144 -0.08245135 28.35481873 0 25 C-1.98 25 -3.96 25 -6 25 C-6 20.71 -6 16.42 -6 12 C-4.02 12 -2.04 12 0 12 C0 8.04 0 4.08 0 0 Z " fill="#56595E" transform="translate(354,176)"/>
<path d="M0 0 C1.02191924 0.97758941 2.02836265 1.9724199 3 3 C1.33248852 6.94139078 -1.22710649 9.7892812 -4 13 C-6.49361571 11.79618552 -8.68143083 10.54571278 -11 9 C-14.39107371 8.45397966 -17.60874176 8.45372076 -21 9 C-23.82424288 11.19022918 -25.41508603 12.83017207 -27 16 C-27.43540712 20.26196588 -27.47065428 23.91749516 -25.75 27.875 C-22.59091547 31.78127147 -22.59091547 31.78127147 -17.91796875 33.28515625 C-12.92650677 33.47554369 -10.22344036 32.77540367 -6 30 C-2.7611548 30 -1.74152148 31.22323145 0.75 33.375 C3 36 3 36 3 39 C-3.58740755 44.51191244 -9.8622852 46.47673197 -18.44921875 46.2421875 C-25.53763816 45.56916759 -30.70647323 43.34219267 -35.4921875 38 C-41.07241782 30.59824372 -42.15709841 23.15264845 -41 14 C-39.01255593 7.68276705 -34.77414754 1.36825273 -29 -2 C-19.5973948 -5.24817271 -8.35354007 -6.15199133 0 0 Z " fill="#54565B" transform="translate(339,192)"/>
<path d="M0 0 C4.62 0 9.24 0 14 0 C14 4.29 14 8.58 14 13 C17.63 13 21.26 13 25 13 C25 16.63 25 20.26 25 24 C21.37 24 17.74 24 14 24 C14.14010035 27.97944615 14.28679559 31.95845381 14.4375 35.9375 C14.47681641 37.07380859 14.51613281 38.21011719 14.55664062 39.38085938 C14.59853516 40.46044922 14.64042969 41.54003906 14.68359375 42.65234375 C14.72025146 43.65257568 14.75690918 44.65280762 14.79467773 45.68334961 C14.74671841 47.96069188 14.74671841 47.96069188 16 49 C19.00331018 49.14193337 21.99217134 49.04236378 25 49 C25 52.63 25 56.26 25 60 C19.12621576 62.93689212 13.45763133 63.01017408 7 62 C3.51323172 59.6447403 1.84518512 56.69037025 0 53 C-0.08543895 50.89471067 -0.10714725 48.78668843 -0.09765625 46.6796875 C-0.09443359 45.42285156 -0.09121094 44.16601562 -0.08789062 42.87109375 C-0.07951172 41.55238281 -0.07113281 40.23367187 -0.0625 38.875 C-0.05748489 37.53515789 -0.05292201 36.195314 -0.04882812 34.85546875 C-0.03701086 31.57026794 -0.02053617 28.28515603 0 25 C-1.98 25 -3.96 25 -6 25 C-6 21.04 -6 17.08 -6 13 C-4.02 13 -2.04 13 0 13 C0 8.71 0 4.42 0 0 Z " fill="#55585D" transform="translate(144,98)"/>
<path d="M0 0 C4.29 0 8.58 0 13 0 C13 3.96 13 7.92 13 12 C16.63 12 20.26 12 24 12 C24 15.63 24 19.26 24 23 C20.37 23 16.74 23 13 23 C13.14033182 26.79194483 13.28700628 30.58345678 13.4375 34.375 C13.47681641 35.45523438 13.51613281 36.53546875 13.55664062 37.6484375 C13.59853516 38.6796875 13.64042969 39.7109375 13.68359375 40.7734375 C13.72025146 41.72653809 13.75690918 42.67963867 13.79467773 43.66162109 C13.85763465 46.02132349 13.85763465 46.02132349 15 48 C18.65381163 48.08304117 21.41220825 47.89694794 25 47 C25 50.96 25 54.92 25 59 C19.21094562 61.57291306 13.21633514 61.70620357 7 61 C2.77268685 58.7172509 1.44054485 56.47842052 0 52 C-0.22705078 48.77026367 -0.22705078 48.77026367 -0.1953125 45.16796875 C-0.18564453 43.22954102 -0.18564453 43.22954102 -0.17578125 41.25195312 C-0.15907327 39.8971327 -0.14214342 38.54231499 -0.125 37.1875 C-0.11496003 35.81315749 -0.10583596 34.43880797 -0.09765625 33.06445312 C-0.07411242 29.70945683 -0.04122567 26.35481801 0 23 C-1.98 23 -3.96 23 -6 23 C-6 19.37 -6 15.74 -6 12 C-4.02 12 -2.04 12 0 12 C0 8.04 0 4.08 0 0 Z " fill="#515459" transform="translate(107,99)"/>
<path d="M0 0 C4.62 0 9.24 0 14 0 C14 16.17 14 32.34 14 49 C9.38 49 4.76 49 0 49 C0 32.83 0 16.66 0 0 Z " fill="#585B60" transform="translate(180,111)"/>
<path d="M0 0 C4.29 0 8.58 0 13 0 C13 15.84 13 31.68 13 48 C8.71 48 4.42 48 0 48 C0 32.16 0 16.32 0 0 Z " fill="#505358" transform="translate(390,189)"/>
<path d="M0 0 C4.29 0 8.58 0 13 0 C13 15.84 13 31.68 13 48 C8.71 48 4.42 48 0 48 C0 32.16 0 16.32 0 0 Z " fill="#515459" transform="translate(78,111)"/>
<path d="M0 0 C4.57923841 1.83169536 6.77915243 4.64055847 9 9 C9.81073912 15.38457059 8.74715699 18.79561529 5 24 C0.64049993 26.7885928 -3.99306996 26.66542668 -9 26 C-12.65107979 23.87020345 -14.42166735 21.86348383 -16 18 C-16.65758112 12.86933803 -16.85694776 8.44794621 -14.1875 3.9375 C-9.41755168 -0.28731137 -6.14772768 -0.68308085 0 0 Z " fill="#FBFBFB" transform="translate(69,37)"/>
<path d="M0 0 C3.20750829 1.62983145 5.25012751 3.9774466 7.375 6.875 C8.67156778 11.28333045 8.40662687 14.90852788 6.8125 19.1875 C4.72195834 22.43144395 3.39603591 24.12134184 0 26 C-3.45242335 26.60858204 -6.55384289 26.66882654 -10 26 C-13.5782157 23.24179206 -16.68358534 20.12164356 -17.37109375 15.51171875 C-17.57244311 6.94844873 -17.57244311 6.94844873 -14.625 3.375 C-10.10356851 -0.71581897 -5.93565914 -0.81933945 0 0 Z " fill="#FAFBFB" transform="translate(443,200)"/>
<path d="M0 0 C4.11587256 0.66512501 7.20396208 1.81960231 9.81640625 5.14453125 C11.15563007 9.96573701 11.04405606 13.29313676 8.62890625 17.70703125 C6.34905114 20.5079961 4.77362702 22.18002113 1.13671875 22.765625 C-5.8240198 22.94546171 -5.8240198 22.94546171 -9.55859375 20.14453125 C-10.21859375 19.23703125 -10.87859375 18.32953125 -11.55859375 17.39453125 C-12.01234375 16.77578125 -12.46609375 16.15703125 -12.93359375 15.51953125 C-13.927723 12.1394918 -13.43565862 9.78584876 -12.55859375 6.39453125 C-9.24826467 0.52136675 -6.38372001 -0.40909085 0 0 Z " fill="#F8F8F8" transform="translate(285.55859375,121.60546875)"/>
<path d="M0 0 C3.23762409 0.62953802 4.83151691 1.92175622 6.96875 4.3828125 C7.29875 6.3628125 7.62875 8.3428125 7.96875 10.3828125 C1.36875 10.3828125 -5.23125 10.3828125 -12.03125 10.3828125 C-9.60589718 3.10675403 -8.24559914 -0.46150741 0 0 Z " fill="#F6F6F6" transform="translate(270.03125,198.6171875)"/>
<path d="M0 0 C3.37013879 0.67402776 4.51677007 1.7087875 6.5 4.5 C6.98746608 7.84262452 6.81565201 9.79442492 5.4375 12.875 C3.5 14.5 3.5 14.5 0 14.9375 C-3.5 14.5 -3.5 14.5 -5.4375 13.4375 C-7.13902633 10.3347167 -6.92519574 7.96230815 -6.5 4.5 C-4.52547983 1.6479153 -3.40524375 0.68104875 0 0 Z " fill="#F2BFB5" transform="translate(396.5,170.5)"/>
<path d="M0 0 C2.8520847 1.97452017 3.81895125 3.09475625 4.5 6.5 C3.82597224 9.87013879 2.7912125 11.01677007 0 13 C-3.34262452 13.48746608 -5.29442492 13.31565201 -8.375 11.9375 C-10 10 -10 10 -10.4375 6.5 C-10 3 -10 3 -8.9375 1.0625 C-5.8347167 -0.63902633 -3.46230815 -0.42519574 0 0 Z " fill="#F2BFB5" transform="translate(190,94)"/>
<path d="M0 0 C2.8520847 1.97452017 3.81895125 3.09475625 4.5 6.5 C3.82597224 9.87013879 2.7912125 11.01677007 0 13 C-3.34262452 13.48746608 -5.29442492 13.31565201 -8.375 11.9375 C-10 10 -10 10 -10.4375 6.5 C-10 3 -10 3 -8.9375 1.0625 C-5.8347167 -0.63902633 -3.46230815 -0.42519574 0 0 Z " fill="#F2BEB5" transform="translate(533,225)"/>
<path d="M0 0 C0.99 0.66 1.98 1.32 3 2 C3.29296875 4.1640625 3.29296875 4.1640625 3.1875 6.625 C3.16042969 7.44226563 3.13335937 8.25953125 3.10546875 9.1015625 C3.07066406 9.72804688 3.03585938 10.35453125 3 11 C-0.53855609 12.91831011 -2.93485192 13.43246256 -7 13 C-8.875 11.9375 -8.875 11.9375 -10 10 C-10.36528977 6.5906288 -10.6140629 4.11976176 -8.9375 1.0625 C-5.91362524 -0.5957539 -3.37613017 -0.30144019 0 0 Z " fill="#F2BEB4" transform="translate(88,94)"/>
<path d="M0 0 C1.21236328 0.02707031 1.21236328 0.02707031 2.44921875 0.0546875 C3.37154297 0.08949219 3.37154297 0.08949219 4.3125 0.125 C4.3125 0.455 4.3125 0.785 4.3125 1.125 C2.518125 1.186875 2.518125 1.186875 0.6875 1.25 C-3.45153429 1.80138112 -5.77584324 3.06709318 -8.56640625 6.16015625 C-10.68166052 9.86737889 -10.67094886 13.93756112 -10.6875 18.125 C-11.0175 18.125 -11.3475 18.125 -11.6875 18.125 C-12.31425326 8.18399689 -12.31425326 8.18399689 -9.875 4.0625 C-6.44710177 1.02636157 -4.5323369 -0.13137208 0 0 Z " fill="#D6D7D8" transform="translate(64.6875,36.875)"/>
<path d="M0 0 C0.66 0.33 1.32 0.66 2 1 C1.05125 1.78375 0.1025 2.5675 -0.875 3.375 C-4.8523213 7.2772775 -5.38464919 11.63159467 -6 17 C-6.33 17 -6.66 17 -7 17 C-7.38434943 12.19563218 -7.47968712 8.90975143 -5.1875 4.5625 C-3 2 -3 2 0 0 Z " fill="#CFD0D1" transform="translate(318,200)"/>
<path d="M0 0 C0 3.96 0 7.92 0 12 C-0.66 12 -1.32 12 -2 12 C-2 8.7 -2 5.4 -2 2 C-2.66 1.67 -3.32 1.34 -4 1 C-2 0 -2 0 0 0 Z " fill="#838589" transform="translate(132,146)"/>
<path d="M0 0 C0.66 0.33 1.32 0.66 2 1 C-1.3 4.3 -4.6 7.6 -8 11 C-8 7.0234755 -6.61988497 5.9109833 -4 3 C-1.75 1.1875 -1.75 1.1875 0 0 Z " fill="#6D6F73" transform="translate(310,190)"/>
<path d="M0 0 C0.66 0.33 1.32 0.66 2 1 C-0.97 3.97 -3.94 6.94 -7 10 C-7 7 -7 7 -4.625 4.4375 C-3.75875 3.633125 -2.8925 2.82875 -2 2 C-1.34 1.34 -0.68 0.68 0 0 Z " fill="#75777B" transform="translate(50,29)"/>
<path d="M0 0 C0.66 0.33 1.32 0.66 2 1 C-0.64 3.64 -3.28 6.28 -6 9 C-6 6 -6 6 -3.5625 3.375 C-2.716875 2.59125 -1.87125 1.8075 -1 1 C-0.67 0.67 -0.34 0.34 0 0 Z " fill="#75777B" transform="translate(268,113)"/>
<path d="M0 0 C0.66 0.33 1.32 0.66 2 1 C-0.31 3.31 -2.62 5.62 -5 8 C-5.33 7.34 -5.66 6.68 -6 6 C-4 4 -2 2 0 0 Z " fill="#FBEEEC" transform="translate(96,202)"/>
</svg>
